Coordinates
version=1
nRows=35
nColumns=18
inDegrees=yes

Units are S.I. units (second, meters, Newtons, ...)
Angles are in degrees.

endheader
time	ground_thorax_rot_x	ground_thorax_rot_y	ground_thorax_rot_z	ground_thorax_tx	ground_thorax_ty	ground_thorax_tz	clav_prot	clav_elev	scapula_abduction	scapula_elevation	scapula_upward_rot	scapula_winging	plane_elv	shoulder_elv	axial_rot	elbow_flexion	pro_sup
      2.12000000	      0.55592968	     -5.28323959	     -9.83305100	     -0.00423131	      0.00403036	     -0.00078352	    -21.00843086	      0.69651577	      9.90537909	     -5.99432984	     42.72950174	     -2.85139887	     59.81541876	     58.99849175	    -19.05343066	      0.00000000	     34.32000000
      2.13000000	      0.35214454	     -5.28871336	     -9.71145181	     -0.00423131	      0.00403036	     -0.00078352	    -21.04425519	      0.74740928	      9.90169660	     -5.97015792	     42.81906853	     -2.87851812	     59.77357420	     59.21198654	    -19.05728691	      0.00000000	     34.32000000
      2.14000000	      0.64625788	     -5.48948021	     -9.79687668	     -0.00423131	      0.00403036	     -0.00078352	    -20.88935671	      0.99403837	     10.48084843	     -5.83708573	     43.27282238	     -3.03961606	     59.15398699	     59.87262050	    -21.80694877	      0.00000000	     34.32000000
      2.15000000	      0.39670516	     -5.45192532	     -9.88402565	     -0.00423131	      0.00403036	     -0.00078352	    -20.93772340	      0.65744710	     10.54847923	     -6.09074864	     43.36967282	     -2.93835826	     59.10952185	     60.22196042	    -19.85106077	      0.00000000	     34.32000000
      2.16000000	      0.20771945	     -5.43713471	     -9.98079974	     -0.00423131	      0.00403036	     -0.00078352	    -21.03083150	      0.50659836	     10.55935527	     -6.22302878	     43.54726178	     -2.90536424	     59.13391709	     60.64254320	    -18.38091160	      0.00000000	     34.32000000
      2.17000000	      0.12837690	     -5.40590937	    -10.06216958	     -0.00423131	      0.00403036	     -0.00078352	    -21.21093297	      0.61293895	     10.45980414	     -6.18989579	     43.85046495	     -2.97135352	     59.23826684	     60.99031162	    -17.38426280	      0.00000000	     34.32000000
      2.18000000	     -0.08257657	     -5.45503469	     -9.93379477	     -0.00423131	      0.00403036	     -0.00078352	    -21.25355991	      0.68304628	     10.45305713	     -6.15346580	     43.95572885	     -3.00695972	     59.21827331	     61.18937820	    -17.38864831	      0.00000000	     34.32000000
      2.19000000	     -0.06428866	     -5.40531630	    -10.04700216	     -0.00423131	      0.00403036	     -0.00078352	    -21.42276774	      0.69568248	     10.23009881	     -6.16414395	     44.05381063	     -3.01354545	     59.34174938	     61.65026118	    -16.08780642	      0.00000000	     34.32000000
      2.20000000	     -0.05023569	     -5.33233704	    -10.10944025	     -0.00423131	      0.00403036	     -0.00078352	    -21.64947942	      0.75675417	     10.09591954	     -6.17008907	     44.40324308	     -3.06871445	     59.26313803	     61.89590453	    -15.26503016	      0.00000000	     34.32000000
      2.21000000	     -0.27577370	     -5.40756701	     -9.93000314	     -0.00423131	      0.00403036	     -0.00078352	    -21.70543633	      0.80879472	     10.10151274	     -6.15112431	     44.54800641	     -3.10306320	     59.21897414	     62.14556395	    -15.27204399	      0.00000000	     34.32000000
      2.22000000	      0.55171382	     -6.00541281	    -10.09381582	     -0.00423131	      0.00403036	     -0.00078352	    -21.54597514	      1.77154111	     11.22555078	     -5.59034895	     45.86464570	     -3.60451589	     58.76689258	     62.47328134	    -15.53671936	      0.00000000	     34.32000000
      2.23000000	      0.26578675	     -6.00782442	     -9.91969720	     -0.00423131	      0.00403036	     -0.00078352	    -21.58752689	      1.78530116	     11.25808635	     -5.59571968	     45.99947991	     -3.62424536	     58.76267258	     62.74268809	    -15.54264947	      0.00000000	     34.32000000
      2.24000000	      0.30348122	     -6.31775266	    -10.08860649	     -0.00423131	      0.00403036	     -0.00078352	    -21.42513489	      1.80856175	     11.92962296	     -5.61608563	     46.47953259	     -3.70296080	     58.26343022	     63.52405004	    -18.14448862	      0.00000000	     34.32000000
      2.25000000	      0.01790692	     -6.22229851	    -10.16547843	     -0.00423131	      0.00403036	     -0.00078352	    -21.58136855	      1.56012903	     11.57017344	     -5.78485635	     46.30862086	     -3.59255459	     58.57426005	     64.27908343	    -16.73715311	      0.00000000	     34.32000000
      2.26000000	     -0.19223549	     -6.26331884	    -10.02528134	     -0.00423131	      0.00403036	     -0.00078352	    -21.63815722	      1.60063659	     11.56875277	     -5.77168256	     46.44209000	     -3.61925992	     58.57477678	     64.49034204	    -16.73958983	      0.00000000	     34.32000000
      2.27000000	     -0.36227998	     -6.18961307	    -10.19371886	     -0.00423131	      0.00403036	     -0.00078352	    -21.83606174	      1.44372343	     11.21518916	     -5.88944758	     46.39427327	     -3.55160171	     58.82526176	     65.25222795	    -15.44658090	      0.00000000	     34.32000000
      2.28000000	      0.29771168	     -6.22874340	    -10.21293160	     -0.00423131	      0.00403036	     -0.00078352	    -22.22778401	      2.35490188	     11.45972317	     -5.39201475	     47.80215265	     -3.99578429	     58.50089830	     64.97802087	    -16.77954810	      0.00000000	     34.32000000
      2.29000000	     -0.00358323	     -6.07215884	    -10.29803220	     -0.00423131	      0.00403036	     -0.00078352	    -22.42243508	      2.17400606	     11.09204743	     -5.52432636	     47.72371187	     -3.92416730	     58.49734098	     65.56468377	    -15.60897673	      0.00000000	     34.32000000
      2.30000000	     -0.23683183	     -6.13851975	    -10.13599116	     -0.00423131	      0.00403036	     -0.00078352	    -22.47818454	      2.22006696	     11.09346248	     -5.50635837	     47.85926133	     -3.95283427	     58.49875710	     65.80067861	    -15.61251057	      0.00000000	     34.32000000
      2.31000000	      0.30115598	     -6.21777966	    -10.29299468	     -0.00423131	      0.00403036	     -0.00078352	    -22.87599754	      2.82073460	     11.00392206	     -5.18095827	     48.78126356	     -4.23383319	     58.90129788	     66.09932938	    -14.77946764	      0.00000000	     34.32000000
      2.32000000	     -0.28180922	     -6.28468229	    -10.23381377	     -0.00423131	      0.00403036	     -0.00078352	    -22.77327005	      2.31863075	     10.71512764	     -5.47071743	     48.06388075	     -4.00052958	     59.20116002	     67.04547445	    -13.36698561	      0.00000000	     34.32000000
      2.33000000	      0.18411429	     -6.62846916	    -10.32474583	     -0.00423131	      0.00403036	     -0.00078352	    -22.86166876	      2.90740625	     11.50078964	     -5.16631040	     49.37914814	     -4.32547211	     58.48478474	     66.78366311	    -15.96900087	      0.00000000	     34.32000000
      2.34000000	     -0.03019973	     -6.70844113	    -10.17986765	     -0.00423131	      0.00403036	     -0.00078352	    -22.92142530	      2.92979116	     11.48389758	     -5.16259761	     49.49367429	     -4.34342454	     58.44966627	     67.02564246	    -15.96759684	      0.00000000	     34.32000000
      2.35000000	      0.07522613	     -6.60165172	    -10.47356912	     -0.00423131	      0.00403036	     -0.00078352	    -23.36469679	      3.02761495	     11.22998356	     -5.16934162	     50.16787585	     -4.44056136	     58.56300721	     67.35576137	    -14.62042177	      0.00000000	     34.32000000
      2.36000000	      0.17322237	     -6.74018289	    -10.45799009	     -0.00423131	      0.00403036	     -0.00078352	    -23.39264484	      3.36451174	     11.36961034	     -4.95683524	     50.49223283	     -4.57265057	     58.38743649	     67.90374275	    -15.11742733	      0.00000000	     34.32000000
      2.37000000	      0.01135574	     -6.69860636	    -10.51212768	     -0.00423131	      0.00403036	     -0.00078352	    -23.54788924	      3.37198860	     11.29753833	     -4.97801487	     50.74049384	     -4.60020697	     58.20127393	     68.12860146	    -14.91051456	      0.00000000	     34.32000000
      2.38000000	      0.02913605	     -6.68756480	    -10.52339812	     -0.00423131	      0.00403036	     -0.00078352	    -23.67008969	      3.58060074	     11.26098276	     -4.85736070	     51.01775006	     -4.68875313	     58.06787320	     68.38245697	    -14.72086684	      0.00000000	     34.32000000
      2.39000000	      0.02414220	     -6.72454461	    -10.58536806	     -0.00423131	      0.00403036	     -0.00078352	    -23.84351531	      3.73403230	     11.23037549	     -4.78488397	     51.39616035	     -4.77123120	     58.11861474	     68.57975269	    -13.54233749	      0.00000000	     34.32000000
      2.40000000	      0.09648386	     -6.82090412	    -10.60393858	     -0.00423131	      0.00403036	     -0.00078352	    -23.96604013	      3.98101888	     11.29449814	     -4.64496601	     51.80592877	     -4.88125190	     58.06169216	     69.06536874	    -13.00766056	      0.00000000	     34.32000000
      2.41000000	     -0.19824859	     -6.96286364	    -10.44303480	     -0.00423131	      0.00403036	     -0.00078352	    -24.02815474	      4.02006135	     11.27634942	     -4.62892943	     51.92800617	     -4.90442949	     58.01205023	     69.34699627	    -13.01291786	      0.00000000	     34.32000000
      2.42000000	      0.07727891	     -7.16422072	    -10.65014632	     -0.00423131	      0.00403036	     -0.00078352	    -24.13949463	      4.26808347	     11.45500831	     -4.49340519	     52.45086080	     -5.02128312	     57.70768712	     69.90673102	    -13.17698613	      0.00000000	     34.32000000
      2.43000000	     -0.25687297	     -6.97780400	    -10.79304269	     -0.00423131	      0.00403036	     -0.00078352	    -24.45407784	      3.92010265	     11.07472968	     -4.76322102	     52.56704874	     -4.94575735	     57.63739948	     70.04810344	    -12.34244304	      0.00000000	     34.32000000
      2.44000000	     -0.02429096	     -7.21615756	    -10.73884941	     -0.00423131	      0.00403036	     -0.00078352	    -24.45324609	      4.24733523	     11.39117616	     -4.56056110	     53.03739550	     -5.07563689	     57.38292592	     70.36855637	    -13.75435341	      0.00000000	     34.32000000
      2.45000000	     -0.33997392	     -7.05919649	    -10.90788009	     -0.00423131	      0.00403036	     -0.00078352	    -24.74453154	      3.89852129	     11.06630624	     -4.83021300	     53.17024687	     -5.00092348	     57.33929145	     70.75533310	    -12.70097793	      0.00000000	     34.32000000
      2.46000000	     -0.60785053	     -7.19978133	    -10.74767031	     -0.00423131	      0.00403036	     -0.00078352	    -24.80724229	      3.95158822	     11.04193492	     -4.80322398	     53.28963652	     -5.02861962	     57.29010905	     71.00061295	    -12.70785672	      0.00000000	     34.32000000
